<?xml version="1.0" standalone="no"?>
<!DOCTYPE svg PUBLIC "-//W3C//DTD SVG 20010904//EN"
 "http://www.w3.org/TR/2001/REC-SVG-20010904/DTD/svg10.dtd">
<svg version="1.0" xmlns="http://www.w3.org/2000/svg"
 width="1920.000000pt" height="1920.000000pt" viewBox="0 0 1920.000000 1920.000000"
 preserveAspectRatio="xMidYMid meet">
<metadata>
Created by potrace 1.14, written by Peter Selinger 2001-2017
</metadata>
<g transform="translate(0.000000,1920.000000) scale(0.100000,-0.100000)"
fill="#000000" stroke="none">
<path d="M2709 16396 c-2 -2 -22 -6 -44 -9 -72 -9 -198 -56 -277 -102 -175
-105 -308 -283 -364 -490 -20 -74 -26 -251 -12 -330 11 -54 16 -80 18 -80 1 0
3 -7 5 -15 49 -219 276 -452 514 -529 90 -29 140 -36 266 -36 214 0 397 78
553 235 157 158 233 354 228 584 -3 93 -8 131 -31 206 -1 3 -5 19 -10 35 -11
42 -84 176 -120 222 -119 151 -294 260 -480 299 -36 7 -240 16 -246 10z"/>
<path d="M4650 16385 c-312 -64 -543 -282 -626 -590 -20 -74 -26 -248 -11
-336 49 -298 291 -558 592 -635 97 -25 343 -25 382 -1 5 4 24 9 42 12 81 14
246 111 331 194 96 94 182 244 216 376 29 119 25 317 -10 420 -1 6 -6 23 -11
38 -24 88 -108 219 -194 305 -97 97 -209 162 -348 203 -87 26 -272 33 -363 14z"/>
<path d="M6695 16394 c-88 -18 -162 -38 -172 -46 -7 -6 -13 -8 -13 -4 0 11
-153 -74 -199 -111 -147 -118 -242 -264 -286 -438 -20 -74 -26 -257 -13 -330
11 -54 16 -80 18 -80 1 0 3 -7 5 -15 24 -109 109 -246 217 -351 213 -208 549
-274 838 -164 233 89 419 299 486 550 20 74 26 252 12 330 -11 54 -16 80 -18
80 -1 0 -3 11 -6 24 -7 40 -91 203 -126 246 -132 160 -296 262 -483 301 -37 7
-232 13 -260 8z"/>
<path d="M12685 16394 c-64 -13 -152 -38 -162 -47 -7 -5 -13 -7 -13 -3 0 15
-156 -74 -215 -124 -182 -152 -281 -351 -291 -581 -3 -93 9 -201 30 -264 1 -5
7 -23 11 -40 10 -37 82 -172 115 -217 102 -136 275 -250 445 -294 97 -25 294
-25 390 0 287 76 505 293 581 581 28 104 25 303 -5 408 -84 292 -320 511 -616
573 -36 7 -242 13 -270 8z"/>
<path d="M14695 16394 c-70 -15 -162 -37 -170 -42 -5 -4 -12 -7 -15 -7 -3 -1
-25 -10 -50 -21 -210 -96 -375 -296 -436 -529 -26 -99 -26 -295 0 -390 52
-190 170 -359 323 -465 63 -43 179 -95 258 -116 108 -28 320 -26 398 5 15 6
27 9 27 6 0 -2 28 7 62 21 218 85 399 276 467 494 30 94 33 114 37 225 9 263
-99 493 -310 660 -80 63 -226 130 -327 150 -41 8 -236 14 -264 9z"/>
<path d="M10890 15793 c-136 -23 -281 -84 -373 -155 -310 -241 -405 -664 -225
-1007 144 -276 419 -436 733 -427 360 10 658 249 751 601 27 103 25 294 -3
400 -21 77 -65 176 -108 240 -102 153 -275 278 -455 326 -72 20 -260 33 -320
22z"/>
<path d="M16495 15794 c-165 -35 -234 -61 -335 -127 -159 -103 -289 -286 -335
-472 -24 -95 -28 -247 -9 -338 8 -40 16 -79 17 -87 9 -44 63 -155 106 -219
113 -167 293 -288 488 -331 84 -18 257 -21 328 -6 112 24 247 85 328 148 332
255 414 725 186 1073 -109 168 -285 295 -474 341 -58 15 -259 26 -300 18z"/>
<path d="M1709 14396 c-2 -2 -22 -6 -44 -9 -227 -31 -456 -195 -568 -407 -64
-121 -88 -214 -93 -355 -4 -144 26 -283 88 -396 116 -216 302 -356 548 -412
90 -21 286 -15 373 11 298 91 510 318 573 617 14 66 13 227 -1 303 -59 308
-286 549 -590 627 -62 16 -275 32 -286 21z"/>
<path d="M3645 14385 c-169 -37 -304 -111 -417 -228 -307 -318 -302 -819 12
-1126 76 -74 110 -98 205 -145 116 -57 205 -79 335 -82 121 -3 186 7 285 42
332 118 543 428 530 779 -4 109 -9 147 -32 215 -91 281 -317 483 -608 545 -62
13 -250 13 -310 0z"/>
<path d="M5645 14385 c-214 -47 -388 -163 -504 -334 -100 -148 -142 -295 -136
-476 4 -109 9 -147 32 -215 90 -277 310 -476 603 -543 90 -21 286 -15 373 11
262 80 460 267 545 517 28 81 33 113 38 228 10 263 -99 494 -317 669 -50 41
-204 114 -279 134 -84 22 -276 27 -355 9z"/>
<path d="M9695 14393 c-95 -18 -167 -39 -219 -62 -226 -102 -389 -296 -451
-536 -23 -87 -28 -264 -10 -340 7 -30 10 -55 7 -55 -2 0 0 -6 6 -12 6 -7 11
-17 11 -23 6 -57 67 -178 130 -255 128 -158 285 -256 476 -296 53 -11 238 -12
295 -2 306 54 558 289 635 593 34 130 26 326 -17 455 -21 60 -87 182 -125 229
-113 141 -257 237 -423 282 -70 20 -262 33 -315 22z"/>
<path d="M17709 14396 c-2 -2 -22 -6 -44 -9 -227 -31 -456 -195 -568 -407 -70
-133 -92 -229 -91 -390 1 -219 72 -393 225 -550 112 -117 274 -202 428 -227
87 -14 299 -8 328 10 5 4 23 9 40 12 17 2 61 18 98 35 238 107 404 314 461
575 14 65 13 227 -1 303 -59 308 -286 549 -590 627 -62 16 -275 32 -286 21z"/>
<path d="M1180 12394 c-72 -13 -167 -37 -177 -46 -7 -6 -13 -8 -13 -4 0 12
-154 -75 -200 -112 -146 -119 -240 -262 -286 -437 -28 -106 -25 -304 5 -409
74 -257 273 -465 520 -545 90 -29 140 -36 266 -36 358 0 668 244 761 600 19
75 25 252 11 336 -10 60 -50 179 -79 232 -107 197 -279 335 -498 399 -63 18
-255 32 -310 22z"/>
<path d="M3175 12394 c-100 -21 -162 -38 -172 -46 -7 -6 -13 -8 -13 -4 0 11
-153 -74 -199 -111 -205 -165 -305 -372 -305 -633 0 -262 98 -464 310 -637 54
-45 204 -117 289 -139 98 -26 294 -26 390 0 290 78 502 290 581 581 20 74 26
251 12 330 -10 54 -16 79 -18 83 -2 1 -3 5 -4 10 -8 35 -42 117 -69 164 -114
201 -316 348 -542 393 -38 8 -233 14 -260 9z"/>
<path d="M5110 12380 c-318 -72 -552 -312 -615 -630 -15 -75 -13 -281 4 -322
6 -16 8 -28 5 -28 -4 0 -1 -7 6 -15 7 -8 10 -15 7 -15 -10 0 40 -116 76 -177
103 -177 280 -311 487 -369 91 -25 299 -25 395 0 220 58 403 201 508 396 72
134 97 245 92 410 -4 159 -46 291 -137 427 -30 45 -133 151 -183 188 -77 58
-216 119 -320 141 -70 14 -251 11 -325 -6z"/>
<path d="M9024 12380 c-264 -59 -485 -255 -576 -511 -37 -105 -43 -151 -42
-294 2 -105 6 -132 34 -220 18 -55 38 -107 46 -116 8 -8 14 -19 14 -23 0 -12
77 -119 117 -162 96 -105 247 -194 388 -230 100 -25 296 -25 390 0 291 79 507
295 580 581 20 74 26 257 13 330 -10 54 -16 79 -18 83 -2 1 -3 5 -4 10 -7 32
-34 98 -63 152 -95 182 -278 329 -488 391 -98 29 -281 33 -391 9z"/>
<path d="M12642 12385 c-305 -66 -540 -291 -618 -590 -28 -105 -25 -304 5
-409 47 -163 154 -321 286 -423 91 -70 235 -133 344 -150 88 -14 299 -8 328
10 5 3 25 9 43 12 53 9 195 82 257 131 197 156 302 365 309 609 2 90 -14 240
-26 240 -1 0 -3 9 -5 20 -7 35 -69 171 -84 185 -3 3 -12 17 -19 31 -20 38
-129 150 -192 196 -90 65 -205 116 -315 139 -64 13 -251 12 -313 -1z"/>
<path d="M18250 12385 c-302 -58 -551 -293 -625 -590 -31 -122 -27 -314 9
-420 1 -5 6 -23 11 -38 25 -92 119 -236 209 -320 91 -87 217 -156 346 -192 91
-26 298 -26 395 -1 276 71 495 285 576 561 24 84 33 254 18 340 -11 63 -16 88
-19 93 -2 1 -3 5 -4 10 -7 30 -33 95 -54 137 -103 197 -281 343 -497 405 -93
27 -265 34 -365 15z"/>
<path d="M1645 10385 c-319 -65 -576 -324 -632 -635 -15 -83 -9 -270 11 -345
70 -264 260 -471 512 -559 93 -32 121 -37 246 -41 328 -10 609 168 750 474 74
161 87 379 32 556 -22 70 -22 69 -20 75 0 3 -9 19 -22 37 -12 17 -22 35 -22
41 0 17 -101 146 -153 195 -96 91 -219 158 -352 192 -85 22 -265 27 -350 10z"/>
<path d="M3709 10396 c-2 -2 -22 -6 -44 -9 -324 -44 -604 -328 -656 -667 -25
-162 5 -339 83 -489 142 -274 421 -437 733 -427 377 11 681 269 760 645 18 86
13 257 -10 346 -74 286 -295 507 -580 580 -61 16 -275 31 -286 21z"/>
<path d="M5709 10396 c-2 -2 -23 -6 -47 -10 -182 -25 -372 -140 -499 -302 -52
-67 -117 -201 -139 -289 -25 -95 -25 -293 0 -390 37 -143 105 -261 214 -371
113 -115 267 -195 425 -222 83 -14 296 -6 324 11 5 3 23 9 40 12 43 7 148 55
213 98 159 103 289 286 336 472 23 91 27 261 8 351 -62 301 -289 542 -585 619
-57 16 -279 32 -290 21z"/>
<path d="M11660 10389 c-229 -38 -446 -196 -563 -409 -64 -117 -87 -203 -93
-352 -15 -378 232 -708 601 -804 80 -20 253 -27 335 -12 322 57 587 319 647
641 12 64 9 265 -5 322 -62 249 -230 453 -454 554 -35 15 -95 36 -133 46 -80
20 -253 27 -335 14z"/>
<path d="M17650 10385 c-393 -79 -660 -415 -645 -810 4 -116 9 -148 37 -230
81 -236 261 -418 494 -499 93 -32 121 -37 246 -41 228 -7 420 69 583 232 94
94 156 193 194 314 29 91 33 112 37 221 9 238 -74 440 -251 611 -91 88 -221
160 -350 192 -88 22 -259 27 -345 10z"/>
<path d="M16498 8995 c-2 -2 -21 -6 -42 -9 -98 -16 -251 -80 -325 -137 -488
-373 -422 -1103 123 -1369 394 -191 874 -24 1064 371 52 110 74 201 78 324 8
266 -95 484 -312 662 -67 56 -214 123 -314 143 -75 15 -261 26 -272 15z"/>
<path d="M2165 8385 c-312 -69 -540 -286 -621 -590 -23 -86 -25 -305 -4 -375
7 -25 14 -47 15 -50 1 -3 5 -18 10 -35 13 -48 82 -174 122 -224 107 -133 231
-220 382 -270 91 -30 141 -36 276 -35 106 1 131 5 215 32 267 88 463 296 536
567 20 74 26 252 12 330 -11 54 -16 80 -18 80 -1 0 -3 11 -6 24 -7 40 -91 203
-126 246 -122 148 -275 249 -443 290 -90 23 -271 28 -350 10z"/>
<path d="M4219 8396 c-2 -2 -23 -7 -46 -11 -66 -9 -162 -43 -233 -82 -58 -31
-179 -123 -205 -156 -68 -83 -88 -111 -118 -167 -72 -134 -97 -245 -92 -410 5
-209 79 -382 227 -531 103 -104 221 -173 368 -214 91 -26 298 -26 395 -1 430
113 679 530 582 971 -2 6 -6 16 -10 23 -5 6 -6 12 -3 12 9 0 -42 118 -77 177
-105 180 -289 318 -492 368 -63 16 -285 32 -296 21z"/>
<path d="M6165 8385 c-311 -69 -531 -277 -621 -585 -23 -80 -26 -309 -4 -380
7 -25 14 -47 15 -50 6 -27 33 -95 53 -135 110 -214 341 -385 571 -422 100 -16
284 -8 344 16 15 6 27 9 27 6 0 -7 122 44 169 71 205 119 347 324 390 564 10
57 8 233 -4 285 -4 17 -8 37 -10 45 -2 8 -4 16 -5 18 -2 1 -3 5 -4 10 -24 106
-114 253 -215 350 -96 92 -203 153 -338 193 -88 26 -283 33 -368 14z"/>
<path d="M10645 8385 c-339 -76 -576 -322 -635 -660 -13 -75 -7 -244 11 -305
7 -25 13 -47 14 -50 21 -96 108 -241 198 -333 92 -94 235 -177 372 -213 98
-26 294 -26 390 0 290 80 508 297 581 581 25 97 25 294 0 390 -74 279 -284
495 -561 576 -90 26 -284 34 -370 14z"/>
<path d="M12685 8394 c-64 -13 -152 -38 -162 -47 -7 -5 -13 -6 -13 -2 0 11
-151 -74 -200 -113 -142 -113 -240 -263 -286 -437 -19 -74 -25 -262 -11 -340
11 -61 58 -198 73 -216 8 -8 14 -19 14 -23 0 -15 80 -124 127 -172 99 -103
239 -184 378 -220 97 -25 294 -25 390 0 286 75 506 295 580 581 20 75 26 253
12 336 -9 60 -50 178 -79 232 -116 212 -319 364 -553 413 -36 7 -242 13 -270
8z"/>
<path d="M14645 8385 c-257 -57 -454 -209 -563 -438 -61 -126 -76 -199 -76
-357 1 -119 4 -145 29 -220 54 -168 140 -294 280 -407 56 -45 207 -118 290
-139 96 -25 342 -26 382 -1 5 4 24 9 42 12 18 3 61 19 96 34 224 102 388 296
451 536 23 86 25 306 4 375 -7 25 -14 47 -15 50 -1 3 -5 19 -10 35 -11 42 -84
176 -120 222 -120 152 -294 260 -480 299 -63 12 -251 12 -310 -1z"/>
<path d="M1630 6380 c-312 -66 -553 -313 -615 -630 -15 -73 -12 -267 3 -317 6
-18 8 -33 5 -33 -3 0 -1 -6 5 -12 6 -7 11 -17 11 -23 6 -57 67 -177 129 -255
157 -194 358 -297 597 -305 127 -4 202 6 300 41 267 96 461 320 521 599 11 55
14 223 3 282 -32 182 -108 325 -244 456 -89 86 -220 159 -345 192 -95 25 -265
28 -370 5z"/>
<path d="M3645 6385 c-243 -53 -432 -193 -548 -405 -71 -131 -97 -244 -92
-410 9 -355 251 -655 600 -746 99 -25 295 -26 390 0 288 78 510 300 581 581
32 129 24 340 -17 450 -100 267 -303 455 -564 520 -89 23 -270 28 -350 10z"/>
<path d="M5645 6385 c-322 -66 -561 -308 -630 -635 -16 -75 -13 -275 5 -330 6
-19 13 -42 15 -50 26 -107 105 -240 200 -336 109 -110 267 -193 425 -223 79
-14 298 -6 328 13 5 3 22 8 39 11 91 16 244 107 338 201 162 163 237 355 230
593 -10 372 -268 676 -640 756 -56 13 -250 12 -310 0z"/>
<path d="M9630 6380 c-295 -63 -530 -290 -605 -585 -23 -87 -28 -264 -10 -340
7 -30 10 -55 7 -55 -2 0 0 -6 6 -12 6 -7 11 -17 11 -23 6 -57 67 -178 130
-255 123 -153 279 -251 469 -293 92 -21 288 -15 375 11 260 79 452 259 541
507 32 90 37 120 42 237 4 118 -7 187 -52 328 -3 8 -4 15 -2 15 2 0 -7 14 -20
32 -12 17 -22 35 -22 41 0 14 -96 140 -139 181 -96 94 -234 173 -361 206 -95
25 -265 28 -370 5z"/>
<path d="M650 4385 c-311 -64 -546 -285 -626 -590 -28 -108 -24 -330 7 -413 6
-15 11 -29 11 -32 0 -3 4 -15 9 -28 5 -13 12 -34 15 -47 3 -13 12 -29 20 -36
8 -6 14 -17 14 -23 0 -20 99 -148 153 -199 140 -131 313 -204 507 -213 234
-10 436 66 599 227 151 148 230 328 237 539 3 85 -14 245 -26 245 -1 0 -3 10
-6 23 -2 13 -11 36 -19 52 -8 16 -15 34 -15 39 0 14 -55 104 -98 161 -98 129
-250 231 -417 281 -89 26 -273 33 -365 14z"/>
<path d="M2630 4380 c-155 -35 -277 -101 -387 -209 -109 -108 -178 -226 -219
-376 -20 -74 -26 -251 -12 -330 11 -54 16 -80 18 -80 1 0 3 -10 6 -21 8 -44
73 -174 116 -231 86 -116 170 -186 293 -247 130 -64 205 -81 355 -81 229 0
408 74 567 233 392 394 268 1063 -240 1292 -144 64 -345 85 -497 50z"/>
<path d="M4709 4396 c-2 -2 -22 -6 -44 -9 -294 -40 -564 -289 -641 -592 -19
-75 -25 -254 -11 -338 29 -175 154 -380 302 -494 90 -70 234 -132 344 -150 83
-14 300 -7 328 10 5 3 23 9 40 11 65 12 206 86 278 146 190 160 290 368 290
605 0 130 -7 177 -40 274 -86 254 -300 452 -560 516 -62 16 -275 31 -286 21z"/>
<path d="M8640 4384 c-301 -64 -538 -291 -616 -589 -28 -108 -24 -330 7 -413
6 -15 11 -29 11 -32 0 -3 4 -15 9 -28 5 -13 12 -34 15 -47 3 -13 12 -29 20
-36 8 -6 14 -16 14 -21 0 -17 77 -123 127 -174 110 -114 257 -195 418 -230 62
-14 241 -12 310 2 370 77 628 380 641 754 3 87 -12 230 -26 248 -2 1 -3 5 -4
10 -22 96 -101 233 -187 323 -117 121 -262 201 -424 235 -64 13 -251 12 -315
-2z"/>
</g>
</svg>
