<svg width="247" height="49" viewBox="0 0 247 49" fill="none" xmlns="http://www.w3.org/2000/svg">
<g clip-path="url(#clip0_4_66)">
<path d="M9.98558 6.61822C11.3914 6.61822 12.531 5.47859 12.531 4.07278C12.531 2.66698 11.3914 1.52734 9.98558 1.52734C8.57977 1.52734 7.44012 2.66698 7.44012 4.07278C7.44012 5.47859 8.57977 6.61822 9.98558 6.61822Z" fill="#FFEBF5"/>
<path d="M6.80376 12.9819C8.20957 12.9819 9.34921 11.8422 9.34921 10.4364C9.34921 9.03062 8.20957 7.89099 6.80376 7.89099C5.39794 7.89099 4.2583 9.03062 4.2583 10.4364C4.2583 11.8422 5.39794 12.9819 6.80376 12.9819Z" fill="#FFEBF5"/>
<path d="M5.14922 19.3455C6.55503 19.3455 7.69467 18.2059 7.69467 16.8001C7.69467 15.3943 6.55503 14.2546 5.14922 14.2546C3.7434 14.2546 2.60376 15.3943 2.60376 16.8001C2.60376 18.2059 3.7434 19.3455 5.14922 19.3455Z" fill="#FFEBF5"/>
<path d="M6.80376 25.7092C8.20957 25.7092 9.34921 24.5695 9.34921 23.1637C9.34921 21.7579 8.20957 20.6183 6.80376 20.6183C5.39794 20.6183 4.2583 21.7579 4.2583 23.1637C4.2583 24.5695 5.39794 25.7092 6.80376 25.7092Z" fill="#FFEBF5"/>
<path d="M8.4583 32.0728C9.86412 32.0728 11.0038 30.9331 11.0038 29.5273C11.0038 28.1215 9.86412 26.9819 8.4583 26.9819C7.05248 26.9819 5.91284 28.1215 5.91284 29.5273C5.91284 30.9331 7.05248 32.0728 8.4583 32.0728Z" fill="#FFEBF5"/>
<path d="M6.80376 38.4364C8.20957 38.4364 9.34921 37.2968 9.34921 35.891C9.34921 34.4852 8.20957 33.3455 6.80376 33.3455C5.39794 33.3455 4.2583 34.4852 4.2583 35.891C4.2583 37.2968 5.39794 38.4364 6.80376 38.4364Z" fill="#FFEBF5"/>
<path d="M3.62194 44.8C5.02775 44.8 6.16739 43.6604 6.16739 42.2546C6.16739 40.8488 5.02775 39.7092 3.62194 39.7092C2.21612 39.7092 1.07648 40.8488 1.07648 42.2546C1.07648 43.6604 2.21612 44.8 3.62194 44.8Z" fill="#FFEBF5"/>
<path d="M16.3492 6.61822C17.755 6.61822 18.8947 5.47859 18.8947 4.07278C18.8947 2.66698 17.755 1.52734 16.3492 1.52734C14.9434 1.52734 13.8038 2.66698 13.8038 4.07278C13.8038 5.47859 14.9434 6.61822 16.3492 6.61822Z" fill="#FF8FC7"/>
<path d="M13.1674 12.9819C14.5732 12.9819 15.7129 11.8422 15.7129 10.4364C15.7129 9.03062 14.5732 7.89099 13.1674 7.89099C11.7616 7.89099 10.6219 9.03062 10.6219 10.4364C10.6219 11.8422 11.7616 12.9819 13.1674 12.9819Z" fill="#FF8FC7"/>
<path d="M11.5129 19.3455C12.9187 19.3455 14.0583 18.2059 14.0583 16.8001C14.0583 15.3943 12.9187 14.2546 11.5129 14.2546C10.107 14.2546 8.96741 15.3943 8.96741 16.8001C8.96741 18.2059 10.107 19.3455 11.5129 19.3455Z" fill="#FF8FC7"/>
<path d="M13.1674 25.7092C14.5732 25.7092 15.7129 24.5695 15.7129 23.1637C15.7129 21.7579 14.5732 20.6183 13.1674 20.6183C11.7616 20.6183 10.6219 21.7579 10.6219 23.1637C10.6219 24.5695 11.7616 25.7092 13.1674 25.7092Z" fill="#FF8FC7"/>
<path d="M14.8219 32.0728C16.2278 32.0728 17.3674 30.9331 17.3674 29.5273C17.3674 28.1215 16.2278 26.9819 14.8219 26.9819C13.4161 26.9819 12.2765 28.1215 12.2765 29.5273C12.2765 30.9331 13.4161 32.0728 14.8219 32.0728Z" fill="#FF8FC7"/>
<path d="M13.1674 38.4364C14.5732 38.4364 15.7129 37.2968 15.7129 35.891C15.7129 34.4852 14.5732 33.3455 13.1674 33.3455C11.7616 33.3455 10.6219 34.4852 10.6219 35.891C10.6219 37.2968 11.7616 38.4364 13.1674 38.4364Z" fill="#FF8FC7"/>
<path d="M9.98558 44.8C11.3914 44.8 12.531 43.6604 12.531 42.2546C12.531 40.8488 11.3914 39.7092 9.98558 39.7092C8.57977 39.7092 7.44012 40.8488 7.44012 42.2546C7.44012 43.6604 8.57977 44.8 9.98558 44.8Z" fill="#FF8FC7"/>
<path d="M22.7128 6.61822C24.1186 6.61822 25.2583 5.47859 25.2583 4.07278C25.2583 2.66698 24.1186 1.52734 22.7128 1.52734C21.307 1.52734 20.1674 2.66698 20.1674 4.07278C20.1674 5.47859 21.307 6.61822 22.7128 6.61822Z" fill="#FF409F"/>
<path d="M19.531 12.9819C20.9368 12.9819 22.0764 11.8422 22.0764 10.4364C22.0764 9.03062 20.9368 7.89099 19.531 7.89099C18.1252 7.89099 16.9855 9.03062 16.9855 10.4364C16.9855 11.8422 18.1252 12.9819 19.531 12.9819Z" fill="#FF409F"/>
<path d="M17.8765 19.3455C19.2823 19.3455 20.4219 18.2059 20.4219 16.8001C20.4219 15.3943 19.2823 14.2546 17.8765 14.2546C16.4706 14.2546 15.331 15.3943 15.331 16.8001C15.331 18.2059 16.4706 19.3455 17.8765 19.3455Z" fill="#FF409F"/>
<path d="M19.531 25.7092C20.9368 25.7092 22.0764 24.5695 22.0764 23.1637C22.0764 21.7579 20.9368 20.6183 19.531 20.6183C18.1252 20.6183 16.9855 21.7579 16.9855 23.1637C16.9855 24.5695 18.1252 25.7092 19.531 25.7092Z" fill="#FF409F"/>
<path d="M21.1856 32.0728C22.5914 32.0728 23.731 30.9331 23.731 29.5273C23.731 28.1215 22.5914 26.9819 21.1856 26.9819C19.7798 26.9819 18.6401 28.1215 18.6401 29.5273C18.6401 30.9331 19.7798 32.0728 21.1856 32.0728Z" fill="#FF409F"/>
<path d="M19.531 38.4364C20.9368 38.4364 22.0764 37.2968 22.0764 35.891C22.0764 34.4852 20.9368 33.3455 19.531 33.3455C18.1252 33.3455 16.9855 34.4852 16.9855 35.891C16.9855 37.2968 18.1252 38.4364 19.531 38.4364Z" fill="#FF409F"/>
<path d="M16.3492 44.8C17.755 44.8 18.8947 43.6604 18.8947 42.2546C18.8947 40.8488 17.755 39.7092 16.3492 39.7092C14.9434 39.7092 13.8038 40.8488 13.8038 42.2546C13.8038 43.6604 14.9434 44.8 16.3492 44.8Z" fill="#FF409F"/>
<path d="M36.0765 8.52734C37.4823 8.52734 38.6219 7.38771 38.6219 5.9819C38.6219 4.57609 37.4823 3.43646 36.0765 3.43646C34.6706 3.43646 33.531 4.57609 33.531 5.9819C33.531 7.38771 34.6706 8.52734 36.0765 8.52734Z" fill="#222222"/>
<path d="M41.8038 6.61822C43.2096 6.61822 44.3492 5.47859 44.3492 4.07278C44.3492 2.66698 43.2096 1.52734 41.8038 1.52734C40.3979 1.52734 39.2583 2.66698 39.2583 4.07278C39.2583 5.47859 40.3979 6.61822 41.8038 6.61822Z" fill="#222222"/>
<path d="M48.1674 6.61822C49.5732 6.61822 50.7129 5.47859 50.7129 4.07278C50.7129 2.66698 49.5732 1.52734 48.1674 1.52734C46.7616 1.52734 45.6219 2.66698 45.6219 4.07278C45.6219 5.47859 46.7616 6.61822 48.1674 6.61822Z" fill="#222222"/>
<path d="M53.8946 8.52734C55.3005 8.52734 56.4401 7.38771 56.4401 5.9819C56.4401 4.57609 55.3005 3.43646 53.8946 3.43646C52.4888 3.43646 51.3492 4.57609 51.3492 5.9819C51.3492 7.38771 52.4888 8.52734 53.8946 8.52734Z" fill="#222222"/>
<path d="M32.2583 12.9819C33.6641 12.9819 34.8037 11.8422 34.8037 10.4364C34.8037 9.03062 33.6641 7.89099 32.2583 7.89099C30.8525 7.89099 29.7128 9.03062 29.7128 10.4364C29.7128 11.8422 30.8525 12.9819 32.2583 12.9819Z" fill="#222222"/>
<path d="M57.7128 12.9819C59.1186 12.9819 60.2583 11.8422 60.2583 10.4364C60.2583 9.03062 59.1186 7.89099 57.7128 7.89099C56.307 7.89099 55.1674 9.03062 55.1674 10.4364C55.1674 11.8422 56.307 12.9819 57.7128 12.9819Z" fill="#222222"/>
<path d="M30.3492 19.3455C31.755 19.3455 32.8947 18.2059 32.8947 16.8001C32.8947 15.3943 31.755 14.2546 30.3492 14.2546C28.9434 14.2546 27.8038 15.3943 27.8038 16.8001C27.8038 18.2059 28.9434 19.3455 30.3492 19.3455Z" fill="#222222"/>
<path d="M41.8038 19.3455C43.2096 19.3455 44.3492 18.2059 44.3492 16.8001C44.3492 15.3943 43.2096 14.2546 41.8038 14.2546C40.3979 14.2546 39.2583 15.3943 39.2583 16.8001C39.2583 18.2059 40.3979 19.3455 41.8038 19.3455Z" fill="#222222"/>
<path d="M59.6219 19.3455C61.0278 19.3455 62.1674 18.2059 62.1674 16.8001C62.1674 15.3943 61.0278 14.2546 59.6219 14.2546C58.2161 14.2546 57.0765 15.3943 57.0765 16.8001C57.0765 18.2059 58.2161 19.3455 59.6219 19.3455Z" fill="#222222"/>
<path d="M38.6219 25.7092C40.0278 25.7092 41.1674 24.5695 41.1674 23.1637C41.1674 21.7579 40.0278 20.6183 38.6219 20.6183C37.2161 20.6183 36.0765 21.7579 36.0765 23.1637C36.0765 24.5695 37.2161 25.7092 38.6219 25.7092Z" fill="#222222"/>
<path d="M57.7128 25.7092C59.1186 25.7092 60.2583 24.5695 60.2583 23.1637C60.2583 21.7579 59.1186 20.6183 57.7128 20.6183C56.307 20.6183 55.1674 21.7579 55.1674 23.1637C55.1674 24.5695 56.307 25.7092 57.7128 25.7092Z" fill="#222222"/>
<path d="M35.4401 32.0728C36.8459 32.0728 37.9856 30.9331 37.9856 29.5273C37.9856 28.1215 36.8459 26.9819 35.4401 26.9819C34.0343 26.9819 32.8947 28.1215 32.8947 29.5273C32.8947 30.9331 34.0343 32.0728 35.4401 32.0728Z" fill="#222222"/>
<path d="M41.8038 32.0728C43.2096 32.0728 44.3492 30.9331 44.3492 29.5273C44.3492 28.1215 43.2096 26.9819 41.8038 26.9819C40.3979 26.9819 39.2583 28.1215 39.2583 29.5273C39.2583 30.9331 40.3979 32.0728 41.8038 32.0728Z" fill="#222222"/>
<path d="M48.1674 32.0728C49.5732 32.0728 50.7129 30.9331 50.7129 29.5273C50.7129 28.1215 49.5732 26.9819 48.1674 26.9819C46.7616 26.9819 45.6219 28.1215 45.6219 29.5273C45.6219 30.9331 46.7616 32.0728 48.1674 32.0728Z" fill="#222222"/>
<path d="M53.8946 30.1637C55.3005 30.1637 56.4401 29.0241 56.4401 27.6183C56.4401 26.2124 55.3005 25.0728 53.8946 25.0728C52.4888 25.0728 51.3492 26.2124 51.3492 27.6183C51.3492 29.0241 52.4888 30.1637 53.8946 30.1637Z" fill="#222222"/>
<path d="M32.2583 38.4364C33.6641 38.4364 34.8037 37.2968 34.8037 35.891C34.8037 34.4852 33.6641 33.3455 32.2583 33.3455C30.8525 33.3455 29.7128 34.4852 29.7128 35.891C29.7128 37.2968 30.8525 38.4364 32.2583 38.4364Z" fill="#222222"/>
<path d="M29.0765 44.8C30.4823 44.8 31.6219 43.6604 31.6219 42.2546C31.6219 40.8488 30.4823 39.7092 29.0765 39.7092C27.6706 39.7092 26.531 40.8488 26.531 42.2546C26.531 43.6604 27.6706 44.8 29.0765 44.8Z" fill="#222222"/>
<path d="M67.2787 41.5584C65.5817 41.5584 64.065 41.1872 62.7287 40.4447C61.4135 39.6811 60.3741 38.6417 59.6105 37.3265C58.868 35.9902 58.4968 34.4629 58.4968 32.7447C58.4968 31.0053 58.868 29.4781 59.6105 28.1629C60.3741 26.8265 61.4135 25.7872 62.7287 25.0447C64.065 24.2811 65.5817 23.8993 67.2787 23.8993C68.9756 23.8993 70.4817 24.2811 71.7968 25.0447C73.1332 25.7872 74.1726 26.8265 74.915 28.1629C75.6787 29.4781 76.0711 31.0053 76.0923 32.7447C76.0923 34.4629 75.7105 35.9902 74.9468 37.3265C74.1832 38.6417 73.1438 39.6811 71.8287 40.4447C70.5135 41.1872 68.9968 41.5584 67.2787 41.5584ZM67.2787 38.9493C68.4453 38.9493 69.4741 38.6841 70.365 38.1538C71.2559 37.6235 71.9559 36.8917 72.465 35.9584C72.9741 35.025 73.2287 33.9538 73.2287 32.7447C73.2287 31.5356 72.9741 30.4644 72.465 29.5311C71.9559 28.5765 71.2559 27.8341 70.365 27.3038C69.4741 26.7735 68.4453 26.5084 67.2787 26.5084C66.1332 26.5084 65.1044 26.7735 64.1923 27.3038C63.3014 27.8341 62.6014 28.5765 62.0923 29.5311C61.5832 30.4644 61.3287 31.5356 61.3287 32.7447C61.3287 33.9538 61.5832 35.025 62.0923 35.9584C62.6014 36.8917 63.3014 37.6235 64.1923 38.1538C65.1044 38.6841 66.1332 38.9493 67.2787 38.9493ZM84.8671 41.4311C83.9762 41.4311 83.1808 41.1872 82.4808 40.6993C81.7808 40.2114 81.2293 39.5432 80.8262 38.6947C80.4444 37.825 80.2535 36.8281 80.2535 35.7038V18.0129C80.2535 17.5887 80.3808 17.2493 80.6353 16.9947C80.9111 16.719 81.2611 16.5811 81.6853 16.5811C82.1308 16.5811 82.4808 16.719 82.7353 16.9947C83.0111 17.2493 83.149 17.5887 83.149 18.0129V35.7038C83.149 36.5311 83.3081 37.2099 83.6262 37.7402C83.9656 38.2705 84.3793 38.5356 84.8671 38.5356H85.6626C86.0656 38.5356 86.3838 38.6735 86.6171 38.9493C86.8505 39.2038 86.9671 39.5538 86.9671 39.9993C86.9671 40.4235 86.7868 40.7735 86.4262 41.0493C86.0868 41.3038 85.6414 41.4311 85.0899 41.4311H84.8671ZM92.8525 35.2902L91.0707 33.3175L101.284 24.1856C101.56 23.9099 101.868 23.7826 102.207 23.8038C102.568 23.8038 102.875 23.9523 103.13 24.2493C103.406 24.5462 103.533 24.875 103.512 25.2356C103.512 25.575 103.363 25.872 103.066 26.1265L92.8525 35.2902ZM91.6434 41.4311C91.2192 41.4311 90.8692 41.3038 90.5934 41.0493C90.3389 40.7735 90.2116 40.4235 90.2116 39.9993V18.0129C90.2116 17.5887 90.3389 17.2493 90.5934 16.9947C90.8692 16.719 91.2192 16.5811 91.6434 16.5811C92.0677 16.5811 92.4071 16.719 92.6616 16.9947C92.9374 17.2493 93.0752 17.5887 93.0752 18.0129V39.9993C93.0752 40.4235 92.9374 40.7735 92.6616 41.0493C92.4071 41.3038 92.0677 41.4311 91.6434 41.4311ZM103.162 41.272C102.843 41.5265 102.493 41.6326 102.112 41.5902C101.751 41.569 101.443 41.3993 101.189 41.0811L94.5071 32.8402L96.5116 30.9311L103.353 39.3629C103.607 39.6599 103.713 39.9887 103.671 40.3493C103.649 40.6887 103.48 40.9962 103.162 41.272ZM114.187 41.5584C112.596 41.5584 111.175 41.1765 109.923 40.4129C108.672 39.6493 107.685 38.5993 106.964 37.2629C106.243 35.9265 105.882 34.4205 105.882 32.7447C105.882 31.0478 106.264 29.5417 107.028 28.2265C107.813 26.8902 108.863 25.8402 110.178 25.0765C111.514 24.2917 113.01 23.8993 114.664 23.8993C116.34 23.8993 117.835 24.2917 119.15 25.0765C120.466 25.8402 121.505 26.8902 122.269 28.2265C123.054 29.5629 123.457 31.069 123.478 32.7447L122.332 33.0311C122.332 34.6432 121.972 36.0962 121.25 37.3902C120.529 38.6841 119.554 39.7023 118.323 40.4447C117.114 41.1872 115.735 41.5584 114.187 41.5584ZM114.664 38.9493C115.81 38.9493 116.828 38.6841 117.719 38.1538C118.61 37.6023 119.31 36.8599 119.819 35.9265C120.349 34.972 120.614 33.9114 120.614 32.7447C120.614 31.5568 120.349 30.4962 119.819 29.5629C119.31 28.6084 118.61 27.8659 117.719 27.3356C116.828 26.7841 115.81 26.5084 114.664 26.5084C113.561 26.5084 112.554 26.7841 111.641 27.3356C110.729 27.8659 110.008 28.6084 109.478 29.5629C108.969 30.4962 108.714 31.5568 108.714 32.7447C108.714 33.9114 108.969 34.972 109.478 35.9265C110.008 36.8599 110.729 37.6023 111.641 38.1538C112.554 38.6841 113.561 38.9493 114.664 38.9493ZM121.982 41.4629C121.558 41.4629 121.208 41.325 120.932 41.0493C120.657 40.7735 120.519 40.4235 120.519 39.9993V34.9084L121.123 31.8538L123.478 32.7447V39.9993C123.478 40.4235 123.329 40.7735 123.032 41.0493C122.757 41.325 122.407 41.4629 121.982 41.4629ZM136.166 41.5584C134.512 41.5584 133.016 41.1765 131.68 40.4129C130.365 39.6281 129.315 38.5675 128.53 37.2311C127.766 35.8947 127.384 34.3887 127.384 32.7129C127.384 31.0372 127.745 29.5417 128.466 28.2265C129.187 26.8902 130.174 25.8402 131.425 25.0765C132.677 24.2917 134.098 23.8993 135.689 23.8993C137.004 23.8993 138.203 24.175 139.284 24.7265C140.387 25.2781 141.3 26.0205 142.021 26.9538V18.0447C142.021 17.5993 142.159 17.2493 142.434 16.9947C142.71 16.719 143.06 16.5811 143.484 16.5811C143.93 16.5811 144.291 16.719 144.566 16.9947C144.842 17.2493 144.98 17.5993 144.98 18.0447V32.7765C144.959 34.4311 144.556 35.9265 143.771 37.2629C143.007 38.5993 141.957 39.6493 140.621 40.4129C139.306 41.1765 137.821 41.5584 136.166 41.5584ZM136.166 38.9493C137.312 38.9493 138.33 38.6841 139.221 38.1538C140.112 37.6023 140.812 36.8599 141.321 35.9265C141.851 34.972 142.116 33.9008 142.116 32.7129C142.116 31.525 141.851 30.4644 141.321 29.5311C140.812 28.5978 140.112 27.8659 139.221 27.3356C138.33 26.7841 137.312 26.5084 136.166 26.5084C135.063 26.5084 134.056 26.7841 133.144 27.3356C132.231 27.8659 131.51 28.5978 130.98 29.5311C130.471 30.4644 130.216 31.525 130.216 32.7129C130.216 33.9008 130.471 34.972 130.98 35.9265C131.51 36.8599 132.231 37.6023 133.144 38.1538C134.056 38.6841 135.063 38.9493 136.166 38.9493ZM158.601 41.5584C156.904 41.5584 155.387 41.1872 154.051 40.4447C152.735 39.6811 151.696 38.6417 150.932 37.3265C150.19 35.9902 149.819 34.4629 149.819 32.7447C149.819 31.0053 150.19 29.4781 150.932 28.1629C151.696 26.8265 152.735 25.7872 154.051 25.0447C155.387 24.2811 156.904 23.8993 158.601 23.8993C160.298 23.8993 161.804 24.2811 163.119 25.0447C164.455 25.7872 165.495 26.8265 166.237 28.1629C167.001 29.4781 167.393 31.0053 167.414 32.7447C167.414 34.4629 167.032 35.9902 166.269 37.3265C165.505 38.6417 164.466 39.6811 163.151 40.4447C161.835 41.1872 160.319 41.5584 158.601 41.5584ZM158.601 38.9493C159.767 38.9493 160.796 38.6841 161.687 38.1538C162.578 37.6235 163.278 36.8917 163.787 35.9584C164.296 35.025 164.551 33.9538 164.551 32.7447C164.551 31.5356 164.296 30.4644 163.787 29.5311C163.278 28.5765 162.578 27.8341 161.687 27.3038C160.796 26.7735 159.767 26.5084 158.601 26.5084C157.455 26.5084 156.426 26.7735 155.514 27.3038C154.623 27.8341 153.923 28.5765 153.414 29.5311C152.905 30.4644 152.651 31.5356 152.651 32.7447C152.651 33.9538 152.905 35.025 153.414 35.9584C153.923 36.8917 154.623 37.6235 155.514 38.1538C156.426 38.6841 157.455 38.9493 158.601 38.9493ZM178.735 41.4311C177.653 41.4311 176.677 41.1659 175.807 40.6356C174.938 40.0841 174.259 39.3523 173.771 38.4402C173.283 37.5068 173.039 36.4462 173.039 35.2584V19.9538C173.039 19.5296 173.166 19.1796 173.421 18.9038C173.697 18.6281 174.047 18.4902 174.471 18.4902C174.895 18.4902 175.245 18.6281 175.521 18.9038C175.797 19.1796 175.935 19.5296 175.935 19.9538V35.2584C175.935 36.2129 176.2 36.9978 176.73 37.6129C177.26 38.2281 177.928 38.5356 178.735 38.5356H179.721C180.081 38.5356 180.378 38.6735 180.612 38.9493C180.866 39.225 180.994 39.575 180.994 39.9993C180.994 40.4235 180.835 40.7735 180.516 41.0493C180.219 41.3038 179.827 41.4311 179.339 41.4311H178.735ZM171.321 27.1765C170.939 27.1765 170.621 27.0599 170.366 26.8265C170.112 26.5932 169.985 26.2962 169.985 25.9356C169.985 25.5538 170.112 25.2462 170.366 25.0129C170.621 24.7796 170.939 24.6629 171.321 24.6629H178.989C179.371 24.6629 179.689 24.7796 179.944 25.0129C180.198 25.2462 180.325 25.5538 180.325 25.9356C180.325 26.2962 180.198 26.5932 179.944 26.8265C179.689 27.0599 179.371 27.1765 178.989 27.1765H171.321ZM191.505 41.4311C190.423 41.4311 189.448 41.1659 188.578 40.6356C187.708 40.0841 187.03 39.3523 186.542 38.4402C186.054 37.5068 185.81 36.4462 185.81 35.2584V19.9538C185.81 19.5296 185.937 19.1796 186.192 18.9038C186.467 18.6281 186.817 18.4902 187.242 18.4902C187.666 18.4902 188.016 18.6281 188.292 18.9038C188.567 19.1796 188.705 19.5296 188.705 19.9538V35.2584C188.705 36.2129 188.97 36.9978 189.501 37.6129C190.031 38.2281 190.699 38.5356 191.505 38.5356H192.492C192.852 38.5356 193.149 38.6735 193.383 38.9493C193.637 39.225 193.764 39.575 193.764 39.9993C193.764 40.4235 193.605 40.7735 193.287 41.0493C192.99 41.3038 192.598 41.4311 192.11 41.4311H191.505ZM184.092 27.1765C183.71 27.1765 183.392 27.0599 183.137 26.8265C182.883 26.5932 182.755 26.2962 182.755 25.9356C182.755 25.5538 182.883 25.2462 183.137 25.0129C183.392 24.7796 183.71 24.6629 184.092 24.6629H191.76C192.142 24.6629 192.46 24.7796 192.714 25.0129C192.969 25.2462 193.096 25.5538 193.096 25.9356C193.096 26.2962 192.969 26.5932 192.714 26.8265C192.46 27.0599 192.142 27.1765 191.76 27.1765H184.092ZM205.835 41.5584C204.075 41.5584 202.515 41.1872 201.158 40.4447C199.822 39.6811 198.772 38.6417 198.008 37.3265C197.244 35.9902 196.862 34.4629 196.862 32.7447C196.862 31.0053 197.223 29.4781 197.944 28.1629C198.665 26.8265 199.662 25.7872 200.935 25.0447C202.208 24.2811 203.682 23.8993 205.358 23.8993C206.991 23.8993 208.402 24.2705 209.59 25.0129C210.778 25.7341 211.69 26.7417 212.326 28.0356C212.962 29.3084 213.281 30.7826 213.281 32.4584C213.281 32.819 213.153 33.1265 212.899 33.3811C212.665 33.6144 212.347 33.7311 211.944 33.7311H198.867V31.3765H211.976L210.672 32.2993C210.65 31.175 210.428 30.1675 210.003 29.2765C209.579 28.3856 208.975 27.6856 208.19 27.1765C207.405 26.6675 206.461 26.4129 205.358 26.4129C204.149 26.4129 203.099 26.6887 202.208 27.2402C201.338 27.7917 200.67 28.5447 200.203 29.4993C199.737 30.4538 199.503 31.5356 199.503 32.7447C199.503 33.9538 199.768 35.0356 200.299 35.9902C200.85 36.9235 201.593 37.6659 202.526 38.2175C203.481 38.769 204.584 39.0447 205.835 39.0447C206.514 39.0447 207.214 38.9175 207.935 38.6629C208.678 38.4084 209.261 38.1114 209.685 37.772C209.982 37.5387 210.3 37.422 210.64 37.422C210.979 37.4008 211.276 37.4962 211.531 37.7084C211.849 38.0053 212.018 38.3341 212.04 38.6947C212.061 39.0341 211.912 39.3311 211.594 39.5856C210.873 40.1584 209.972 40.6356 208.89 41.0175C207.829 41.3781 206.811 41.5584 205.835 41.5584ZM218.759 30.6129C218.801 29.319 219.13 28.1629 219.745 27.1447C220.381 26.1265 221.219 25.3205 222.259 24.7265C223.298 24.1326 224.443 23.8356 225.695 23.8356C226.862 23.8356 227.731 24.0159 228.304 24.3765C228.898 24.7372 229.121 25.1932 228.972 25.7447C228.909 26.0629 228.781 26.2962 228.59 26.4447C228.399 26.572 228.177 26.6462 227.922 26.6675C227.668 26.6675 227.392 26.6462 227.095 26.6038C225.801 26.3917 224.645 26.4235 223.627 26.6993C222.609 26.975 221.803 27.4523 221.209 28.1311C220.615 28.8099 220.318 29.6372 220.318 30.6129H218.759ZM218.854 41.4311C218.409 41.4311 218.059 41.3144 217.804 41.0811C217.549 40.8265 217.422 40.4659 217.422 39.9993V25.4584C217.422 25.0129 217.549 24.6629 217.804 24.4084C218.059 24.1538 218.409 24.0265 218.854 24.0265C219.342 24.0265 219.703 24.1538 219.936 24.4084C220.19 24.6417 220.318 24.9917 220.318 25.4584V39.9993C220.318 40.4447 220.19 40.7947 219.936 41.0493C219.703 41.3038 219.342 41.4311 218.854 41.4311ZM238.76 41.5584C237.36 41.5584 236.034 41.3462 234.782 40.922C233.531 40.4765 232.545 39.872 231.823 39.1084C231.548 38.7902 231.431 38.4402 231.473 38.0584C231.516 37.6765 231.707 37.3478 232.046 37.072C232.407 36.7962 232.778 36.6796 233.16 36.722C233.542 36.7644 233.86 36.9341 234.114 37.2311C234.539 37.6978 235.154 38.1008 235.96 38.4402C236.787 38.7796 237.689 38.9493 238.664 38.9493C240.043 38.9493 241.061 38.7265 241.719 38.2811C242.398 37.8144 242.748 37.2417 242.769 36.5629C242.769 35.8629 242.44 35.2796 241.782 34.8129C241.125 34.325 239.969 33.9432 238.314 33.6675C236.172 33.2644 234.613 32.6387 233.637 31.7902C232.661 30.9417 232.173 29.9129 232.173 28.7038C232.173 27.622 232.47 26.7311 233.064 26.0311C233.679 25.3099 234.475 24.7796 235.451 24.4402C236.448 24.0796 237.498 23.8993 238.601 23.8993C240.001 23.8993 241.231 24.1326 242.292 24.5993C243.352 25.0447 244.201 25.6705 244.837 26.4765C245.113 26.7947 245.229 27.1235 245.187 27.4629C245.166 27.8023 244.996 28.0887 244.678 28.322C244.36 28.5129 243.989 28.5765 243.564 28.5129C243.161 28.4493 242.822 28.269 242.546 27.972C242.016 27.4205 241.422 27.0387 240.764 26.8265C240.128 26.5932 239.386 26.4765 238.537 26.4765C237.519 26.4765 236.67 26.6675 235.992 27.0493C235.334 27.4311 235.005 27.9508 235.005 28.6084C235.005 29.0326 235.111 29.4038 235.323 29.722C235.557 30.0402 235.981 30.3372 236.596 30.6129C237.211 30.8675 238.092 31.1008 239.237 31.3129C240.828 31.6099 242.079 32.0023 242.992 32.4902C243.925 32.9781 244.593 33.5508 244.996 34.2084C245.399 34.8659 245.601 35.6084 245.601 36.4356C245.601 37.4114 245.325 38.2917 244.773 39.0765C244.243 39.8402 243.469 40.4447 242.451 40.8902C241.432 41.3356 240.202 41.5584 238.76 41.5584Z" fill="#222222"/>
<path d="M44.1908 45.0341C45.5966 45.0341 46.7362 43.8945 46.7362 42.4887C46.7362 41.0829 45.5966 39.9432 44.1908 39.9432C42.785 39.9432 41.6453 41.0829 41.6453 42.4887C41.6453 43.8945 42.785 45.0341 44.1908 45.0341Z" fill="#FF0080"/>
</g>
<defs>
<clipPath id="clip0_4_66">
<rect width="246.909" height="49" fill="white"/>
</clipPath>
</defs>
</svg>
