<svg width="321" height="231" viewBox="0 0 321 231" fill="none" xmlns="http://www.w3.org/2000/svg">
<path d="M47.0748 31.2004C53.7023 31.2004 59.0748 25.8278 59.0748 19.2004C59.0748 12.573 53.7023 7.20038 47.0748 7.20038C40.4474 7.20038 35.0748 12.573 35.0748 19.2004C35.0748 25.8278 40.4474 31.2004 47.0748 31.2004Z" fill="#FFEBF5"/>
<path d="M32.0748 61.2002C38.7023 61.2002 44.0748 55.8277 44.0748 49.2003C44.0748 42.5729 38.7023 37.2004 32.0748 37.2004C25.4474 37.2004 20.0748 42.5729 20.0748 49.2003C20.0748 55.8277 25.4474 61.2002 32.0748 61.2002Z" fill="#FFEBF5"/>
<path d="M24.2749 91.2002C30.9023 91.2002 36.2749 85.8277 36.2749 79.2003C36.2749 72.5729 30.9023 67.2004 24.2749 67.2004C17.6474 67.2004 12.2748 72.5729 12.2748 79.2003C12.2748 85.8277 17.6474 91.2002 24.2749 91.2002Z" fill="#FFEBF5"/>
<path d="M32.0748 121.2C38.7023 121.2 44.0748 115.828 44.0748 109.2C44.0748 102.573 38.7023 97.2004 32.0748 97.2004C25.4474 97.2004 20.0748 102.573 20.0748 109.2C20.0748 115.828 25.4474 121.2 32.0748 121.2Z" fill="#FFEBF5"/>
<path d="M39.8748 151.2C46.5023 151.2 51.8748 145.828 51.8748 139.2C51.8748 132.573 46.5023 127.2 39.8748 127.2C33.2474 127.2 27.8748 132.573 27.8748 139.2C27.8748 145.828 33.2474 151.2 39.8748 151.2Z" fill="#FFEBF5"/>
<path d="M32.0748 181.2C38.7023 181.2 44.0748 175.828 44.0748 169.2C44.0748 162.573 38.7023 157.2 32.0748 157.2C25.4474 157.2 20.0748 162.573 20.0748 169.2C20.0748 175.828 25.4474 181.2 32.0748 181.2Z" fill="#FFEBF5"/>
<path d="M17.0748 211.2C23.7023 211.2 29.0748 205.828 29.0748 199.2C29.0748 192.573 23.7023 187.2 17.0748 187.2C10.4474 187.2 5.07483 192.573 5.07483 199.2C5.07483 205.828 10.4474 211.2 17.0748 211.2Z" fill="#FFEBF5"/>
<path d="M77.0748 31.2004C83.7022 31.2004 89.0748 25.8278 89.0748 19.2004C89.0748 12.573 83.7022 7.20038 77.0748 7.20038C70.4474 7.20038 65.0748 12.573 65.0748 19.2004C65.0748 25.8278 70.4474 31.2004 77.0748 31.2004Z" fill="#FF8FC7"/>
<path d="M62.0748 61.2002C68.7022 61.2002 74.0748 55.8277 74.0748 49.2003C74.0748 42.5729 68.7022 37.2004 62.0748 37.2004C55.4474 37.2004 50.0748 42.5729 50.0748 49.2003C50.0748 55.8277 55.4474 61.2002 62.0748 61.2002Z" fill="#FF8FC7"/>
<path d="M54.2748 91.2002C60.9022 91.2002 66.2748 85.8277 66.2748 79.2003C66.2748 72.5729 60.9022 67.2004 54.2748 67.2004C47.6474 67.2004 42.2748 72.5729 42.2748 79.2003C42.2748 85.8277 47.6474 91.2002 54.2748 91.2002Z" fill="#FF8FC7"/>
<path d="M62.0748 121.2C68.7022 121.2 74.0748 115.828 74.0748 109.2C74.0748 102.573 68.7022 97.2004 62.0748 97.2004C55.4474 97.2004 50.0748 102.573 50.0748 109.2C50.0748 115.828 55.4474 121.2 62.0748 121.2Z" fill="#FF8FC7"/>
<path d="M69.8748 151.2C76.5022 151.2 81.8748 145.828 81.8748 139.2C81.8748 132.573 76.5022 127.2 69.8748 127.2C63.2474 127.2 57.8748 132.573 57.8748 139.2C57.8748 145.828 63.2474 151.2 69.8748 151.2Z" fill="#FF8FC7"/>
<path d="M62.0748 181.2C68.7022 181.2 74.0748 175.828 74.0748 169.2C74.0748 162.573 68.7022 157.2 62.0748 157.2C55.4474 157.2 50.0748 162.573 50.0748 169.2C50.0748 175.828 55.4474 181.2 62.0748 181.2Z" fill="#FF8FC7"/>
<path d="M47.0748 211.2C53.7022 211.2 59.0748 205.828 59.0748 199.2C59.0748 192.573 53.7022 187.2 47.0748 187.2C40.4474 187.2 35.0748 192.573 35.0748 199.2C35.0748 205.828 40.4474 211.2 47.0748 211.2Z" fill="#FF8FC7"/>
<path d="M107.075 31.2004C113.702 31.2004 119.075 25.8278 119.075 19.2004C119.075 12.573 113.702 7.20038 107.075 7.20038C100.447 7.20038 95.0748 12.573 95.0748 19.2004C95.0748 25.8278 100.447 31.2004 107.075 31.2004Z" fill="#FF409F"/>
<path d="M92.0748 61.2002C98.7023 61.2002 104.075 55.8277 104.075 49.2003C104.075 42.5729 98.7023 37.2004 92.0748 37.2004C85.4474 37.2004 80.0748 42.5729 80.0748 49.2003C80.0748 55.8277 85.4474 61.2002 92.0748 61.2002Z" fill="#FF409F"/>
<path d="M84.2749 91.2002C90.9023 91.2002 96.2749 85.8277 96.2749 79.2003C96.2749 72.5729 90.9023 67.2004 84.2749 67.2004C77.6474 67.2004 72.2748 72.5729 72.2748 79.2003C72.2748 85.8277 77.6474 91.2002 84.2749 91.2002Z" fill="#FF409F"/>
<path d="M92.0748 121.2C98.7023 121.2 104.075 115.828 104.075 109.2C104.075 102.573 98.7023 97.2004 92.0748 97.2004C85.4474 97.2004 80.0748 102.573 80.0748 109.2C80.0748 115.828 85.4474 121.2 92.0748 121.2Z" fill="#FF409F"/>
<path d="M99.8748 151.2C106.502 151.2 111.875 145.828 111.875 139.2C111.875 132.573 106.502 127.2 99.8748 127.2C93.2474 127.2 87.8748 132.573 87.8748 139.2C87.8748 145.828 93.2474 151.2 99.8748 151.2Z" fill="#FF409F"/>
<path d="M92.0748 181.2C98.7023 181.2 104.075 175.828 104.075 169.2C104.075 162.573 98.7023 157.2 92.0748 157.2C85.4474 157.2 80.0748 162.573 80.0748 169.2C80.0748 175.828 85.4474 181.2 92.0748 181.2Z" fill="#FF409F"/>
<path d="M77.0748 211.2C83.7023 211.2 89.0748 205.828 89.0748 199.2C89.0748 192.573 83.7023 187.2 77.0748 187.2C70.4474 187.2 65.0748 192.573 65.0748 199.2C65.0748 205.828 70.4474 211.2 77.0748 211.2Z" fill="#FF409F"/>
<path d="M170.075 40.2002C176.702 40.2002 182.075 34.8277 182.075 28.2003C182.075 21.5729 176.702 16.2004 170.075 16.2004C163.447 16.2004 158.075 21.5729 158.075 28.2003C158.075 34.8277 163.447 40.2002 170.075 40.2002Z" fill="#222222"/>
<path d="M197.075 31.2004C203.702 31.2004 209.075 25.8278 209.075 19.2004C209.075 12.573 203.702 7.20038 197.075 7.20038C190.447 7.20038 185.075 12.573 185.075 19.2004C185.075 25.8278 190.447 31.2004 197.075 31.2004Z" fill="#222222"/>
<path d="M227.075 31.2004C233.702 31.2004 239.075 25.8278 239.075 19.2004C239.075 12.573 233.702 7.20038 227.075 7.20038C220.447 7.20038 215.075 12.573 215.075 19.2004C215.075 25.8278 220.447 31.2004 227.075 31.2004Z" fill="#222222"/>
<path d="M254.075 40.2002C260.702 40.2002 266.075 34.8277 266.075 28.2003C266.075 21.5729 260.702 16.2004 254.075 16.2004C247.447 16.2004 242.075 21.5729 242.075 28.2003C242.075 34.8277 247.447 40.2002 254.075 40.2002Z" fill="#222222"/>
<path d="M152.075 61.2002C158.702 61.2002 164.075 55.8277 164.075 49.2003C164.075 42.5729 158.702 37.2004 152.075 37.2004C145.447 37.2004 140.075 42.5729 140.075 49.2003C140.075 55.8277 145.447 61.2002 152.075 61.2002Z" fill="#222222"/>
<path d="M272.075 61.2002C278.702 61.2002 284.075 55.8277 284.075 49.2003C284.075 42.5729 278.702 37.2004 272.075 37.2004C265.447 37.2004 260.075 42.5729 260.075 49.2003C260.075 55.8277 265.447 61.2002 272.075 61.2002Z" fill="#222222"/>
<path d="M143.075 91.2002C149.702 91.2002 155.075 85.8277 155.075 79.2003C155.075 72.5729 149.702 67.2004 143.075 67.2004C136.447 67.2004 131.075 72.5729 131.075 79.2003C131.075 85.8277 136.447 91.2002 143.075 91.2002Z" fill="#222222"/>
<path d="M197.075 91.2002C203.702 91.2002 209.075 85.8277 209.075 79.2003C209.075 72.5729 203.702 67.2004 197.075 67.2004C190.447 67.2004 185.075 72.5729 185.075 79.2003C185.075 85.8277 190.447 91.2002 197.075 91.2002Z" fill="#222222"/>
<path d="M281.075 91.2002C287.702 91.2002 293.075 85.8277 293.075 79.2003C293.075 72.5729 287.702 67.2004 281.075 67.2004C274.447 67.2004 269.075 72.5729 269.075 79.2003C269.075 85.8277 274.447 91.2002 281.075 91.2002Z" fill="#222222"/>
<path d="M182.075 121.2C188.702 121.2 194.075 115.828 194.075 109.2C194.075 102.573 188.702 97.2004 182.075 97.2004C175.447 97.2004 170.075 102.573 170.075 109.2C170.075 115.828 175.447 121.2 182.075 121.2Z" fill="#222222"/>
<path d="M272.075 121.2C278.702 121.2 284.075 115.828 284.075 109.2C284.075 102.573 278.702 97.2004 272.075 97.2004C265.447 97.2004 260.075 102.573 260.075 109.2C260.075 115.828 265.447 121.2 272.075 121.2Z" fill="#222222"/>
<path d="M167.075 151.2C173.702 151.2 179.075 145.828 179.075 139.2C179.075 132.573 173.702 127.2 167.075 127.2C160.447 127.2 155.075 132.573 155.075 139.2C155.075 145.828 160.447 151.2 167.075 151.2Z" fill="#222222"/>
<path d="M197.075 151.2C203.702 151.2 209.075 145.828 209.075 139.2C209.075 132.573 203.702 127.2 197.075 127.2C190.447 127.2 185.075 132.573 185.075 139.2C185.075 145.828 190.447 151.2 197.075 151.2Z" fill="#222222"/>
<path d="M227.075 151.2C233.702 151.2 239.075 145.828 239.075 139.2C239.075 132.573 233.702 127.2 227.075 127.2C220.447 127.2 215.075 132.573 215.075 139.2C215.075 145.828 220.447 151.2 227.075 151.2Z" fill="#222222"/>
<path d="M254.075 142.2C260.702 142.2 266.075 136.828 266.075 130.2C266.075 123.573 260.702 118.2 254.075 118.2C247.447 118.2 242.075 123.573 242.075 130.2C242.075 136.828 247.447 142.2 254.075 142.2Z" fill="#222222"/>
<path d="M152.075 181.2C158.702 181.2 164.075 175.828 164.075 169.2C164.075 162.573 158.702 157.2 152.075 157.2C145.447 157.2 140.075 162.573 140.075 169.2C140.075 175.828 145.447 181.2 152.075 181.2Z" fill="#222222"/>
<path d="M137.075 211.2C143.702 211.2 149.075 205.828 149.075 199.2C149.075 192.573 143.702 187.2 137.075 187.2C130.447 187.2 125.075 192.573 125.075 199.2C125.075 205.828 130.447 211.2 137.075 211.2Z" fill="#222222"/>
<path d="M208.328 212.304C214.955 212.304 220.328 206.931 220.328 200.304C220.328 193.677 214.955 188.304 208.328 188.304C201.701 188.304 196.328 193.677 196.328 200.304C196.328 206.931 201.701 212.304 208.328 212.304Z" fill="#FF0080"/>
</svg>
